<svg width="46" height="46" viewBox="0 0 46 46" fill="none" xmlns="http://www.w3.org/2000/svg">
<path d="M23 11C16.3719 11 11 16.3719 11 23C11 29.6281 16.3719 35 23 35C29.6281 35 35 29.6281 35 23C35 16.3719 29.6281 11 23 11ZM23 29.75C22.1562 29.75 21.5 29.0938 21.5 28.25C21.5 27.4062 22.1141 26.75 23 26.75C23.8016 26.75 24.5 27.4062 24.5 28.25C24.5 29.0938 23.8016 29.75 23 29.75ZM26.2391 23.0938L24.125 24.4062V24.5C24.125 25.1094 23.6094 25.625 23 25.625C22.3906 25.625 21.875 25.1094 21.875 24.5V23.75C21.875 23.375 22.0625 23 22.4375 22.7656L25.1094 21.1719C25.4375 20.9844 25.625 20.6562 25.625 20.2812C25.625 19.7188 25.1141 19.25 24.5516 19.25H22.1562C21.5516 19.25 21.125 19.7188 21.125 20.2812C21.125 20.8906 20.6094 21.4062 20 21.4062C19.3906 21.4062 18.875 20.8906 18.875 20.2812C18.875 18.4531 20.3281 17 22.1141 17H24.5094C26.4219 17 27.875 18.4531 27.875 20.2812C27.875 21.4062 27.2656 22.4844 26.2391 23.0938Z" fill="#5DC6FF"/>
<path d="M0 0H22V4.85C22 6.45163 20.7016 7.75 19.1 7.75H18.9C12.604 7.75 7.5 12.854 7.5 19.15V19.15C7.5 20.724 6.22401 22 4.65 22H0V0Z" fill="#76DB82"/>
<path d="M46 0H24V4.85C24 6.45163 25.2984 7.75 26.9 7.75H27.1C33.396 7.75 38.5 12.854 38.5 19.15V19.15C38.5 20.724 39.776 22 41.35 22H46V0Z" fill="#76DB82"/>
<path d="M46 46H24V41.15C24 39.5484 25.2984 38.25 26.9 38.25H27.1C33.396 38.25 38.5 33.146 38.5 26.85V26.85C38.5 25.276 39.776 24 41.35 24H46V46Z" fill="#76DB82"/>
<path d="M0 46H22V41.15C22 39.5484 20.7016 38.25 19.1 38.25H18.9C12.604 38.25 7.5 33.146 7.5 26.85V26.85C7.5 25.276 6.22401 24 4.65 24H0V46Z" fill="#76DB82"/>
</svg>
